<?xml version="1.0" encoding="UTF-8"?>
<svg xmlns="http://www.w3.org/2000/svg" xmlns:xlink="http://www.w3.org/1999/xlink" viewBox="0 0 128 128" width="128px" height="128px">
<defs>
<linearGradient id="linear0" gradientUnits="userSpaceOnUse" x1="86" y1="32.25" x2="86" y2="139.75" gradientTransform="matrix(0.744186,0,0,0.744186,0,0)">
<stop offset="0" style="stop-color:rgb(10.196079%,42.745098%,100%);stop-opacity:1;"/>
<stop offset="1" style="stop-color:rgb(78.431374%,13.333334%,100%);stop-opacity:1;"/>
</linearGradient>
<linearGradient id="linear1" gradientUnits="userSpaceOnUse" x1="145.057816" y1="54.045631" x2="145.057816" y2="134.375" gradientTransform="matrix(0.744186,0,0,0.744186,0,0)">
<stop offset="0" style="stop-color:rgb(54.11765%,70.588237%,100%);stop-opacity:1;"/>
<stop offset="1" style="stop-color:rgb(89.411765%,57.254905%,100%);stop-opacity:1;"/>
</linearGradient>
<linearGradient id="linear2" gradientUnits="userSpaceOnUse" x1="26.94219" y1="54.045631" x2="26.94219" y2="134.375" gradientTransform="matrix(0.744186,0,0,0.744186,0,0)">
<stop offset="0" style="stop-color:rgb(54.11765%,70.588237%,100%);stop-opacity:1;"/>
<stop offset="1" style="stop-color:rgb(89.411765%,57.254905%,100%);stop-opacity:1;"/>
</linearGradient>
<linearGradient id="linear3" gradientUnits="userSpaceOnUse" x1="86" y1="37.97438" x2="86" y2="93.444382" gradientTransform="matrix(0.744186,0,0,0.744186,0,0)">
<stop offset="0" style="stop-color:rgb(54.11765%,70.588237%,100%);stop-opacity:1;"/>
<stop offset="1" style="stop-color:rgb(89.411765%,57.254905%,100%);stop-opacity:1;"/>
</linearGradient>
</defs>
<g id="surface8024227">
<path style=" stroke:none;fill-rule:nonzero;fill:url(#linear0);" d="M 116 33.640625 L 115.980469 33.640625 C 115.878906 28.300781 111.621094 24 106.398438 24 L 21.601562 24 C 16.378906 24 12.121094 28.300781 12.019531 33.640625 L 12 33.640625 C 12 33.660156 12.019531 33.679688 12.019531 33.71875 C 12.019531 33.761719 12 33.78125 12 33.820312 L 12 94.179688 C 12 99.601562 16.320312 104 21.601562 104 L 106.398438 104 C 111.679688 104 116 99.601562 116 94.179688 L 116 33.820312 C 116 33.78125 115.980469 33.761719 115.980469 33.71875 C 115.980469 33.679688 116 33.660156 116 33.640625 Z M 101.339844 28 L 64 54.21875 L 26.660156 28 Z M 20.058594 28.261719 L 64 59.121094 L 107.941406 28.261719 C 110.238281 28.941406 111.941406 31.101562 111.980469 33.699219 C 111.921875 34.980469 110.238281 36.578125 109.378906 37.179688 L 64 69.539062 L 18.601562 37.160156 C 17.761719 36.578125 16.078125 34.980469 16.019531 33.699219 C 16.058594 31.101562 17.761719 28.941406 20.058594 28.261719 Z M 24 46 L 24 100 L 21.601562 100 C 18.519531 100 16 97.378906 16 94.179688 L 16 40.21875 C 16.140625 40.320312 16.238281 40.398438 16.28125 40.441406 L 24.101562 46 Z M 100 100 L 28 100 L 28 48.78125 L 64 74.460938 L 100 48.78125 Z M 112 94.179688 C 112 97.378906 109.480469 100 106.398438 100 L 104 100 L 104 46 L 103.898438 46 L 111.699219 40.441406 C 111.738281 40.398438 111.859375 40.320312 112 40.21875 Z M 112 94.179688 "/>
<path style=" stroke:none;fill-rule:nonzero;fill:url(#linear1);" d="M 112 40.21875 L 112 94.179688 C 112 97.378906 109.480469 100 106.398438 100 L 104 100 L 104 46 L 103.898438 46 L 111.699219 40.441406 C 111.738281 40.398438 111.859375 40.320312 112 40.21875 Z M 112 40.21875 "/>
<path style=" stroke:none;fill-rule:nonzero;fill:url(#linear2);" d="M 24.101562 46 L 24 46 L 24 100 L 21.601562 100 C 18.519531 100 16 97.378906 16 94.179688 L 16 40.21875 C 16.140625 40.320312 16.238281 40.398438 16.28125 40.441406 Z M 24.101562 46 "/>
<path style=" stroke:none;fill-rule:nonzero;fill:url(#linear3);" d="M 111.980469 33.699219 C 111.921875 34.980469 110.238281 36.578125 109.378906 37.179688 L 64 69.539062 L 18.601562 37.160156 C 17.761719 36.578125 16.078125 34.980469 16.019531 33.699219 C 16.058594 31.101562 17.761719 28.941406 20.058594 28.261719 L 64 59.121094 L 107.941406 28.261719 C 110.238281 28.941406 111.941406 31.101562 111.980469 33.699219 Z M 111.980469 33.699219 "/>
</g>
</svg>
